<mxfile host="app.diagrams.net" modified="2024-06-11T19:37:14.027Z" agent="Mozilla/5.0 (Macintosh; Intel Mac OS X 10_15_7) AppleWebKit/605.1.15 (KHTML, like Gecko) Version/17.5 Safari/605.1.15" etag="RIUl5NoWRaUcjfNSGRLZ" version="24.5.3" type="github">
  <diagram name="Page-1" id="Ew7KFUsUM-5sgseoDQyE">
    <mxGraphModel dx="591" dy="394" grid="1" gridSize="10" guides="1" tooltips="1" connect="1" arrows="1" fold="1" page="1" pageScale="1" pageWidth="850" pageHeight="1100" math="0" shadow="0">
      <root>
        <mxCell id="0" />
        <mxCell id="1" parent="0" />
        <mxCell id="-bnWbpkABqGrMp3vOz5b-1" value="" style="endArrow=classic;html=1;rounded=0;" parent="1" target="-bnWbpkABqGrMp3vOz5b-4" edge="1">
          <mxGeometry width="50" height="50" relative="1" as="geometry">
            <mxPoint x="170" y="160" as="sourcePoint" />
            <mxPoint x="450" y="160" as="targetPoint" />
          </mxGeometry>
        </mxCell>
        <mxCell id="-bnWbpkABqGrMp3vOz5b-2" value="" style="endArrow=classic;html=1;rounded=0;" parent="1" edge="1">
          <mxGeometry width="50" height="50" relative="1" as="geometry">
            <mxPoint x="320" y="320" as="sourcePoint" />
            <mxPoint x="320" y="30" as="targetPoint" />
          </mxGeometry>
        </mxCell>
        <mxCell id="-bnWbpkABqGrMp3vOz5b-3" value="Impact on A&#39;s points" style="text;html=1;align=center;verticalAlign=middle;whiteSpace=wrap;rounded=0;fontStyle=1" parent="1" vertex="1">
          <mxGeometry x="240" y="10" width="160" height="30" as="geometry" />
        </mxCell>
        <mxCell id="-bnWbpkABqGrMp3vOz5b-4" value="&lt;b&gt;&lt;i&gt;&lt;font face=&quot;Georgia&quot;&gt;a&lt;/font&gt;&lt;/i&gt;&lt;/b&gt;" style="text;html=1;align=center;verticalAlign=middle;whiteSpace=wrap;rounded=0;" parent="1" vertex="1">
          <mxGeometry x="470" y="145" width="55" height="30" as="geometry" />
        </mxCell>
        <mxCell id="-bnWbpkABqGrMp3vOz5b-5" value="-6" style="text;html=1;align=center;verticalAlign=middle;whiteSpace=wrap;rounded=0;" parent="1" vertex="1">
          <mxGeometry x="190" y="151" width="20" height="30" as="geometry" />
        </mxCell>
        <mxCell id="-bnWbpkABqGrMp3vOz5b-6" value="6" style="text;html=1;align=center;verticalAlign=middle;whiteSpace=wrap;rounded=0;" parent="1" vertex="1">
          <mxGeometry x="431" y="151" width="20" height="30" as="geometry" />
        </mxCell>
        <mxCell id="-bnWbpkABqGrMp3vOz5b-7" value="-18" style="text;html=1;align=center;verticalAlign=middle;whiteSpace=wrap;rounded=0;" parent="1" vertex="1">
          <mxGeometry x="299" y="265" width="20" height="30" as="geometry" />
        </mxCell>
        <mxCell id="-bnWbpkABqGrMp3vOz5b-8" value="18" style="text;html=1;align=center;verticalAlign=middle;whiteSpace=wrap;rounded=0;" parent="1" vertex="1">
          <mxGeometry x="299" y="25" width="20" height="30" as="geometry" />
        </mxCell>
        <mxCell id="-bnWbpkABqGrMp3vOz5b-9" value="0" style="text;html=1;align=center;verticalAlign=middle;whiteSpace=wrap;rounded=0;" parent="1" vertex="1">
          <mxGeometry x="306" y="151" width="20" height="30" as="geometry" />
        </mxCell>
        <mxCell id="-bnWbpkABqGrMp3vOz5b-10" value="" style="endArrow=none;html=1;rounded=0;strokeWidth=4;" parent="1" edge="1">
          <mxGeometry width="50" height="50" relative="1" as="geometry">
            <mxPoint x="200" y="240" as="sourcePoint" />
            <mxPoint x="300" y="207" as="targetPoint" />
          </mxGeometry>
        </mxCell>
        <mxCell id="-bnWbpkABqGrMp3vOz5b-13" value="" style="endArrow=none;dashed=1;html=1;dashPattern=1 3;strokeWidth=2;rounded=0;entryX=0.25;entryY=0;entryDx=0;entryDy=0;" parent="1" edge="1">
          <mxGeometry width="50" height="50" relative="1" as="geometry">
            <mxPoint x="170" y="288" as="sourcePoint" />
            <mxPoint x="483.75" y="183" as="targetPoint" />
          </mxGeometry>
        </mxCell>
        <mxCell id="-bnWbpkABqGrMp3vOz5b-14" value="1" style="text;html=1;align=center;verticalAlign=middle;whiteSpace=wrap;rounded=0;" parent="1" vertex="1">
          <mxGeometry x="330" y="151" width="20" height="30" as="geometry" />
        </mxCell>
        <mxCell id="-bnWbpkABqGrMp3vOz5b-15" value="-1" style="text;html=1;align=center;verticalAlign=middle;whiteSpace=wrap;rounded=0;" parent="1" vertex="1">
          <mxGeometry x="290" y="151" width="20" height="30" as="geometry" />
        </mxCell>
        <mxCell id="-bnWbpkABqGrMp3vOz5b-20" value="" style="ellipse;whiteSpace=wrap;html=1;aspect=fixed;fillColor=#f5f5f5;strokeColor=#666666;fontColor=#333333;" parent="1" vertex="1">
          <mxGeometry x="315" y="233" width="10" height="10" as="geometry" />
        </mxCell>
        <mxCell id="-bnWbpkABqGrMp3vOz5b-24" value="B&#39;s intercept&lt;sub&gt;-0&lt;/sub&gt;" style="text;html=1;align=center;verticalAlign=middle;whiteSpace=wrap;rounded=0;fontColor=#919191;" parent="1" vertex="1">
          <mxGeometry x="335.5" y="233" width="84.5" height="15" as="geometry" />
        </mxCell>
        <mxCell id="ykKiPOJK7NnUL1nWyVB5-1" value="" style="endArrow=classic;html=1;rounded=0;" edge="1" parent="1" target="ykKiPOJK7NnUL1nWyVB5-4">
          <mxGeometry width="50" height="50" relative="1" as="geometry">
            <mxPoint x="170.5" y="510" as="sourcePoint" />
            <mxPoint x="450.5" y="510" as="targetPoint" />
          </mxGeometry>
        </mxCell>
        <mxCell id="ykKiPOJK7NnUL1nWyVB5-2" value="" style="endArrow=classic;html=1;rounded=0;" edge="1" parent="1">
          <mxGeometry width="50" height="50" relative="1" as="geometry">
            <mxPoint x="320.5" y="670" as="sourcePoint" />
            <mxPoint x="320.5" y="380" as="targetPoint" />
          </mxGeometry>
        </mxCell>
        <mxCell id="ykKiPOJK7NnUL1nWyVB5-3" value="Impact on A&#39;s points" style="text;html=1;align=center;verticalAlign=middle;whiteSpace=wrap;rounded=0;fontStyle=1" vertex="1" parent="1">
          <mxGeometry x="240.5" y="360" width="160" height="30" as="geometry" />
        </mxCell>
        <mxCell id="ykKiPOJK7NnUL1nWyVB5-4" value="&lt;b&gt;&lt;i&gt;&lt;font face=&quot;Georgia&quot;&gt;a&lt;/font&gt;&lt;/i&gt;&lt;/b&gt;" style="text;html=1;align=center;verticalAlign=middle;whiteSpace=wrap;rounded=0;" vertex="1" parent="1">
          <mxGeometry x="470.5" y="495" width="55" height="30" as="geometry" />
        </mxCell>
        <mxCell id="ykKiPOJK7NnUL1nWyVB5-5" value="-6" style="text;html=1;align=center;verticalAlign=middle;whiteSpace=wrap;rounded=0;" vertex="1" parent="1">
          <mxGeometry x="190.5" y="501" width="20" height="30" as="geometry" />
        </mxCell>
        <mxCell id="ykKiPOJK7NnUL1nWyVB5-6" value="6" style="text;html=1;align=center;verticalAlign=middle;whiteSpace=wrap;rounded=0;" vertex="1" parent="1">
          <mxGeometry x="431.5" y="501" width="20" height="30" as="geometry" />
        </mxCell>
        <mxCell id="ykKiPOJK7NnUL1nWyVB5-7" value="-18" style="text;html=1;align=center;verticalAlign=middle;whiteSpace=wrap;rounded=0;" vertex="1" parent="1">
          <mxGeometry x="299.5" y="615" width="20" height="30" as="geometry" />
        </mxCell>
        <mxCell id="ykKiPOJK7NnUL1nWyVB5-8" value="18" style="text;html=1;align=center;verticalAlign=middle;whiteSpace=wrap;rounded=0;" vertex="1" parent="1">
          <mxGeometry x="299.5" y="375" width="20" height="30" as="geometry" />
        </mxCell>
        <mxCell id="ykKiPOJK7NnUL1nWyVB5-9" value="0" style="text;html=1;align=center;verticalAlign=middle;whiteSpace=wrap;rounded=0;" vertex="1" parent="1">
          <mxGeometry x="306.5" y="501" width="20" height="30" as="geometry" />
        </mxCell>
        <mxCell id="ykKiPOJK7NnUL1nWyVB5-10" value="" style="endArrow=none;html=1;rounded=0;strokeWidth=4;" edge="1" parent="1">
          <mxGeometry width="50" height="50" relative="1" as="geometry">
            <mxPoint x="200.5" y="590" as="sourcePoint" />
            <mxPoint x="300.5" y="557" as="targetPoint" />
          </mxGeometry>
        </mxCell>
        <mxCell id="ykKiPOJK7NnUL1nWyVB5-11" value="" style="endArrow=none;html=1;rounded=0;strokeWidth=4;" edge="1" parent="1">
          <mxGeometry width="50" height="50" relative="1" as="geometry">
            <mxPoint x="340.5" y="460" as="sourcePoint" />
            <mxPoint x="440.5" y="400" as="targetPoint" />
          </mxGeometry>
        </mxCell>
        <mxCell id="ykKiPOJK7NnUL1nWyVB5-12" value="" style="endArrow=none;dashed=1;html=1;dashPattern=1 3;strokeWidth=2;rounded=0;" edge="1" parent="1">
          <mxGeometry width="50" height="50" relative="1" as="geometry">
            <mxPoint x="200.5" y="549" as="sourcePoint" />
            <mxPoint x="470.5" y="380" as="targetPoint" />
          </mxGeometry>
        </mxCell>
        <mxCell id="ykKiPOJK7NnUL1nWyVB5-13" value="" style="endArrow=none;dashed=1;html=1;dashPattern=1 3;strokeWidth=2;rounded=0;entryX=0.25;entryY=0;entryDx=0;entryDy=0;" edge="1" parent="1" target="ykKiPOJK7NnUL1nWyVB5-4">
          <mxGeometry width="50" height="50" relative="1" as="geometry">
            <mxPoint x="170.5" y="600" as="sourcePoint" />
            <mxPoint x="440.5" y="433" as="targetPoint" />
          </mxGeometry>
        </mxCell>
        <mxCell id="ykKiPOJK7NnUL1nWyVB5-14" value="1" style="text;html=1;align=center;verticalAlign=middle;whiteSpace=wrap;rounded=0;" vertex="1" parent="1">
          <mxGeometry x="330.5" y="501" width="20" height="30" as="geometry" />
        </mxCell>
        <mxCell id="ykKiPOJK7NnUL1nWyVB5-15" value="-1" style="text;html=1;align=center;verticalAlign=middle;whiteSpace=wrap;rounded=0;" vertex="1" parent="1">
          <mxGeometry x="290.5" y="501" width="20" height="30" as="geometry" />
        </mxCell>
        <mxCell id="ykKiPOJK7NnUL1nWyVB5-16" value="" style="ellipse;whiteSpace=wrap;html=1;aspect=fixed;fillColor=#f5f5f5;strokeColor=#666666;fontColor=#333333;" vertex="1" parent="1">
          <mxGeometry x="315.5" y="545" width="10" height="10" as="geometry" />
        </mxCell>
        <mxCell id="ykKiPOJK7NnUL1nWyVB5-17" value="" style="ellipse;whiteSpace=wrap;html=1;aspect=fixed;fillColor=#f5f5f5;strokeColor=#666666;fontColor=#333333;" vertex="1" parent="1">
          <mxGeometry x="315.5" y="468" width="10" height="10" as="geometry" />
        </mxCell>
        <mxCell id="ykKiPOJK7NnUL1nWyVB5-18" value="B&#39;s intercept&lt;sub&gt;-&lt;/sub&gt;" style="text;html=1;align=center;verticalAlign=middle;whiteSpace=wrap;rounded=0;fontColor=#919191;" vertex="1" parent="1">
          <mxGeometry x="328.5" y="555" width="75" height="15" as="geometry" />
        </mxCell>
        <mxCell id="ykKiPOJK7NnUL1nWyVB5-19" value="B&#39;s intercept&lt;font size=&quot;1&quot;&gt;&lt;sub&gt;+&lt;/sub&gt;&lt;/font&gt;" style="text;html=1;align=center;verticalAlign=middle;whiteSpace=wrap;rounded=0;fontColor=#919191;" vertex="1" parent="1">
          <mxGeometry x="326.5" y="474" width="79" height="26" as="geometry" />
        </mxCell>
        <mxCell id="ykKiPOJK7NnUL1nWyVB5-20" value="" style="endArrow=open;html=1;rounded=0;fillColor=#f5f5f5;strokeColor=#666666;endFill=0;" edge="1" parent="1">
          <mxGeometry width="50" height="50" relative="1" as="geometry">
            <mxPoint x="392.5" y="436" as="sourcePoint" />
            <mxPoint x="403.5" y="446" as="targetPoint" />
          </mxGeometry>
        </mxCell>
        <mxCell id="ykKiPOJK7NnUL1nWyVB5-21" value="B&#39;s slope&lt;font size=&quot;1&quot;&gt;&lt;sub&gt;+&lt;/sub&gt;&lt;/font&gt;" style="text;html=1;align=center;verticalAlign=middle;whiteSpace=wrap;rounded=0;fontColor=#919191;" vertex="1" parent="1">
          <mxGeometry x="402.5" y="446" width="59" height="10" as="geometry" />
        </mxCell>
        <mxCell id="ykKiPOJK7NnUL1nWyVB5-22" value="" style="endArrow=open;html=1;rounded=0;fillColor=#f5f5f5;strokeColor=#666666;endFill=0;" edge="1" parent="1">
          <mxGeometry width="50" height="50" relative="1" as="geometry">
            <mxPoint x="237.5" y="590" as="sourcePoint" />
            <mxPoint x="248.5" y="600" as="targetPoint" />
          </mxGeometry>
        </mxCell>
        <mxCell id="ykKiPOJK7NnUL1nWyVB5-23" value="B&#39;s slope&lt;span style=&quot;font-size: 9px;&quot;&gt;&lt;sub&gt;-&lt;/sub&gt;&lt;/span&gt;" style="text;html=1;align=center;verticalAlign=middle;whiteSpace=wrap;rounded=0;fontColor=#919191;" vertex="1" parent="1">
          <mxGeometry x="247.5" y="600" width="59" height="10" as="geometry" />
        </mxCell>
        <mxCell id="ykKiPOJK7NnUL1nWyVB5-26" value="" style="endArrow=none;dashed=1;html=1;dashPattern=1 3;strokeWidth=2;rounded=0;entryX=0.25;entryY=0;entryDx=0;entryDy=0;" edge="1" parent="1">
          <mxGeometry width="50" height="50" relative="1" as="geometry">
            <mxPoint x="170" y="250" as="sourcePoint" />
            <mxPoint x="483.75" y="145" as="targetPoint" />
          </mxGeometry>
        </mxCell>
        <mxCell id="ykKiPOJK7NnUL1nWyVB5-27" value="" style="ellipse;whiteSpace=wrap;html=1;aspect=fixed;fillColor=#f5f5f5;strokeColor=#666666;fontColor=#333333;" vertex="1" parent="1">
          <mxGeometry x="315" y="195" width="10" height="10" as="geometry" />
        </mxCell>
        <mxCell id="ykKiPOJK7NnUL1nWyVB5-28" value="B&#39;s intercept&lt;sub&gt;-1&lt;/sub&gt;" style="text;html=1;align=center;verticalAlign=middle;whiteSpace=wrap;rounded=0;fontColor=#919191;" vertex="1" parent="1">
          <mxGeometry x="326.5" y="192.5" width="104" height="15" as="geometry" />
        </mxCell>
        <mxCell id="ykKiPOJK7NnUL1nWyVB5-29" value="" style="endArrow=none;html=1;rounded=0;strokeWidth=4;" edge="1" parent="1">
          <mxGeometry width="50" height="50" relative="1" as="geometry">
            <mxPoint x="199" y="278" as="sourcePoint" />
            <mxPoint x="299" y="245" as="targetPoint" />
          </mxGeometry>
        </mxCell>
      </root>
    </mxGraphModel>
  </diagram>
</mxfile>
